<?xml version="1.0" encoding="UTF-8"?>
<svg version="1.1" xmlns="http://www.w3.org/2000/svg" width="1920" height="1080">
<path d="M0 0 C633.6 0 1267.2 0 1920 0 C1920 356.4 1920 712.8 1920 1080 C1286.4 1080 652.8 1080 0 1080 C0 723.6 0 367.2 0 0 Z " fill="#FFFFFF" transform="translate(0,0)"/>
<path d="M0 0 C63.36 0 126.72 0 192 0 C192 63.36 192 126.72 192 192 C128.64 192 65.28 192 0 192 C0 128.64 0 65.28 0 0 Z " fill="#010101" transform="translate(864,444)"/>
<path d="M0 0 C-0.433125 0.48210937 -0.86625 0.96421875 -1.3125 1.4609375 C-1.869375 2.09257812 -2.42625 2.72421875 -3 3.375 C-3.556875 4.00148438 -4.11375 4.62796875 -4.6875 5.2734375 C-6.20172487 6.90389833 -6.20172487 6.90389833 -6 9 C-1.59885603 8.49701212 0.71195019 6.91227269 4 4 C6.04297643 10.12892928 1.72068379 16.47070197 -0.85009766 22.03808594 C-12.23248473 44.28460817 -35.01998783 62.09463202 -53 79 C-56.76672156 75.81597912 -60.49002591 72.63838094 -63.96484375 69.1328125 C-64.61904297 68.47539063 -65.27324219 67.81796875 -65.94726562 67.140625 C-66.60404297 66.47546875 -67.26082031 65.8103125 -67.9375 65.125 C-68.62134766 64.43664062 -69.30519531 63.74828125 -70.00976562 63.0390625 C-71.67551464 61.36166489 -73.3388622 59.68196209 -75 58 C-73.59580207 54.8613794 -71.92485435 52.61535468 -69.57714844 50.11206055 C-68.87227798 49.35955017 -68.16740753 48.60703979 -67.44117737 47.83172607 C-63.2372881 43.42374528 -59.01486746 39.03661033 -54.75 34.6875 C-53.85527985 33.77493439 -52.96055969 32.86236877 -52.03872681 31.92214966 C-40.91826881 20.69167807 -30.144425 10.60069062 -15.6875 3.9375 C-15.05348267 3.64499359 -14.41946533 3.35248718 -13.76623535 3.05111694 C-3.99466497 -1.33155499 -3.99466497 -1.33155499 0 0 Z " fill="#FAFAFA" transform="translate(1039,457)"/>
<path d="M0 0 C3.18086518 1.50946511 5.29869906 3.07941825 7.75 5.625 C8.36359375 6.25664063 8.9771875 6.88828125 9.609375 7.5390625 C10.29773438 8.26222656 10.29773438 8.26222656 11 9 C7.66666667 12.33333333 4.33333333 15.66666667 1 19 C1.495 20.485 1.495 20.485 2 22 C7.37276448 19.81109595 10.44905164 16.10189672 13 11 C17.95 15.95 17.95 15.95 23 21 C-12.7784282 63.35068328 -12.7784282 63.35068328 -36.625 74.875 C-37.24077911 75.1730957 -37.85655823 75.47119141 -38.49099731 75.77832031 C-48.08185629 80.3060479 -48.08185629 80.3060479 -52 79 C-51.57847656 78.54109375 -51.15695312 78.0821875 -50.72265625 77.609375 C-50.17480469 76.99578125 -49.62695312 76.3821875 -49.0625 75.75 C-48.51722656 75.14671875 -47.97195313 74.5434375 -47.41015625 73.921875 C-45.93787201 71.91532695 -45.42470811 70.42997551 -45 68 C-48.26818838 68.36313204 -49.1574067 69.1574067 -51.5625 71.5625 C-52.366875 72.366875 -53.17125 73.17125 -54 74 C-54.99 74 -55.98 74 -57 74 C-49.60422983 51.09151345 -37.55646133 35.73210589 -20.1875 19.375 C-18.21645302 17.47708158 -16.25562137 15.56875513 -14.29492188 13.66015625 C-9.56411945 9.0701371 -4.79809657 4.5195764 0 0 Z " fill="#FAFAFA" transform="translate(933,544)"/>
<path d="M0 0 C23.30548886 3.99046485 40.61207552 21.63838707 56.42997766 37.6837461 C59.52297833 40.81038958 62.64842101 43.90438206 65.76835632 47.00410461 C70.99596867 52.20827183 76.19604898 57.43876258 81.38061523 62.68579102 C87.31782983 68.69371882 93.3004232 74.65338028 99.30872184 80.59015435 C104.52868034 85.75052012 109.72213541 90.93653608 114.89548844 96.14362365 C117.9581552 99.22623529 121.02814905 102.3001775 124.12267494 105.3508358 C138.6222977 119.67250311 153.32199789 134.73898767 159 155 C158.54218656 157.15053576 158.54218656 157.15053576 158 159 C137.86885094 138.89163982 117.74024247 118.78073987 97.61520129 98.66626662 C95.24185892 96.29417502 92.86849478 93.9221052 90.49511719 91.55004883 C90.02260005 91.077794 89.55008292 90.60553918 89.06324708 90.11897361 C81.40180477 82.46188833 73.73859897 74.80657027 66.07474554 67.15189833 C58.21705434 59.30354274 50.36128566 51.45326616 42.50720692 43.60129541 C38.09307443 39.18847061 33.6780553 34.77654095 29.26095581 30.36668587 C25.10896379 26.22144875 20.9592887 22.07390675 16.81142807 17.92453575 C15.28360143 16.39698568 13.75490876 14.87030125 12.22531509 13.34452057 C10.14734321 11.27147765 8.07242552 9.19542677 5.99829102 7.11854553 C5.38352118 6.50668854 4.76875135 5.89483155 4.13535213 5.26443344 C0 1.11412121 0 1.11412121 0 0 Z " fill="#F5F5F5" transform="translate(883,457)"/>
<path d="M0 0 C4.73867016 3.95678128 9.22126344 8.07865165 13.57432556 12.45407104 C14.19692294 13.075814 14.81952032 13.69755696 15.46098429 14.33814061 C17.52836988 16.40389055 19.59218165 18.47317293 21.65600586 20.54248047 C23.14448927 22.03124619 24.63319339 23.51979128 26.12210083 25.00813293 C30.15065925 29.0364051 34.17613256 33.06774742 38.20105052 37.09965658 C42.41264041 41.31750856 46.62707277 45.53251843 50.84120178 49.74783325 C58.81511035 57.72484672 66.78646691 65.70440532 74.75690514 73.6848861 C83.83351392 82.77268215 92.91297105 91.85763018 101.99266613 100.94234252 C120.66494392 119.62506565 139.33364976 138.31135464 158 157 C150.63245121 159.13361519 143.14888271 153.60679542 136.7421875 150.19775391 C125.14513525 143.43050974 116.19221339 133.46900837 107.03094482 123.79663086 C104.4548815 121.08900683 101.84593074 118.41348808 99.23828125 115.73632812 C96.29942318 112.71873728 93.36608677 109.69722485 90.45666504 106.65116882 C86.00554207 101.99986377 81.52253175 97.5418928 76.58605957 93.40473938 C74.43219812 91.4971099 72.79512289 89.24390361 71 87 C69.84780609 85.98335832 68.67885612 84.98560102 67.5 84 C64.02778248 81.0377954 60.97327521 77.82148132 57.9375 74.42578125 C52.75704527 68.71935052 47.29227793 63.36350003 41.71875 58.04296875 C39.1745966 55.58872166 36.63281784 53.13203374 34.09130859 50.67504883 C32.37357774 49.02609842 30.64608841 47.38724952 28.90869141 45.7590332 C16.05486109 33.68101205 5.75147294 20.96779799 0 4 C0 2.68 0 1.36 0 0 Z " fill="#FBFBFB" transform="translate(878,464)"/>
<path d="M0 0 C0.36795695 3.2828659 0.3231932 4.58663012 -1.75 7.23828125 C-2.4925 7.92277344 -3.235 8.60726562 -4 9.3125 C-4.7425 10.00988281 -5.485 10.70726562 -6.25 11.42578125 C-7.11625 12.20501953 -7.11625 12.20501953 -8 13 C-9.32 12.34 -10.64 11.68 -12 11 C-10.60807296 7.86989542 -8.97357774 5.67663308 -6.5625 3.25 C-5.96566406 2.63640625 -5.36882813 2.0228125 -4.75390625 1.390625 C-3 0 -3 0 0 0 Z " fill="#131313" transform="translate(945,554)"/>
<path d="M0 0 C-0.15007431 4.95245213 -2.86069058 7.36965314 -6.11328125 10.7421875 C-8 12 -8 12 -10.23046875 11.6953125 C-10.81441406 11.46585938 -11.39835938 11.23640625 -12 11 C-11.41781807 7.49138358 -10.18286308 5.75070647 -7.6875 3.25 C-6.79611328 2.32960938 -6.79611328 2.32960938 -5.88671875 1.390625 C-4 0 -4 0 0 0 Z " fill="#0D0D0D" transform="translate(917,583)"/>
<path d="M0 0 C0.99 0.33 1.98 0.66 3 1 C2.84595887 6.08335725 -0.02068432 8.35754718 -3.50390625 11.64453125 C-3.99761719 12.09183594 -4.49132812 12.53914062 -5 13 C-6.32 12.34 -7.64 11.68 -9 11 C-7.59155282 7.78475695 -5.89655214 5.67816132 -3.375 3.25 C-2.74335937 2.63640625 -2.11171875 2.0228125 -1.4609375 1.390625 C-0.73777344 0.70226562 -0.73777344 0.70226562 0 0 Z " fill="#0F0F0F" transform="translate(928,568)"/>
<path d="M0 0 C-0.15007431 4.95245213 -2.86069058 7.36965314 -6.11328125 10.7421875 C-8 12 -8 12 -10.23046875 11.6953125 C-10.81441406 11.46585937 -11.39835938 11.23640625 -12 11 C-11.41781807 7.49138358 -10.18286308 5.75070647 -7.6875 3.25 C-6.79611328 2.32960938 -6.79611328 2.32960938 -5.88671875 1.390625 C-4 0 -4 0 0 0 Z " fill="#0D0D0D" transform="translate(1016,484)"/>
<path d="M0 0 C0.99 0.33 1.98 0.66 3 1 C2.84595887 6.08335725 -0.02068432 8.35754718 -3.50390625 11.64453125 C-3.99761719 12.09183594 -4.49132812 12.53914063 -5 13 C-6.32 12.34 -7.64 11.68 -9 11 C-7.59155282 7.78475695 -5.89655214 5.67816132 -3.375 3.25 C-2.74335937 2.63640625 -2.11171875 2.0228125 -1.4609375 1.390625 C-0.73777344 0.70226562 -0.73777344 0.70226562 0 0 Z " fill="#0F0F0F" transform="translate(1027,469)"/>
<path d="M0 0 C0.58394531 0.23074219 1.16789063 0.46148438 1.76953125 0.69921875 C1.18557919 4.21071716 -0.0632652 5.98953633 -2.54296875 8.51171875 C-3.13722656 9.13691406 -3.73148438 9.76210938 -4.34375 10.40625 C-6.23046875 11.69921875 -6.23046875 11.69921875 -8.4609375 11.3984375 C-9.04488281 11.16769531 -9.62882813 10.93695312 -10.23046875 10.69921875 C-9.64651669 7.18772034 -8.3976723 5.40890117 -5.91796875 2.88671875 C-5.32371094 2.26152344 -4.72945312 1.63632812 -4.1171875 0.9921875 C-2.23046875 -0.30078125 -2.23046875 -0.30078125 0 0 Z " fill="#0C0C0C" transform="translate(901.23046875,597.30078125)"/>
<path d="M0 0 C0.58394531 0.23074219 1.16789063 0.46148438 1.76953125 0.69921875 C1.18557919 4.21071716 -0.0632652 5.98953633 -2.54296875 8.51171875 C-3.13722656 9.13691406 -3.73148438 9.76210938 -4.34375 10.40625 C-6.23046875 11.69921875 -6.23046875 11.69921875 -8.4609375 11.3984375 C-9.04488281 11.16769531 -9.62882813 10.93695312 -10.23046875 10.69921875 C-9.64651669 7.18772034 -8.3976723 5.40890117 -5.91796875 2.88671875 C-5.32371094 2.26152344 -4.72945312 1.63632812 -4.1171875 0.9921875 C-2.23046875 -0.30078125 -2.23046875 -0.30078125 0 0 Z " fill="#0A0A0A" transform="translate(986.23046875,512.30078125)"/>
<path d="M0 0 C0.58394531 0.23074219 1.16789063 0.46148437 1.76953125 0.69921875 C1.18557919 4.21071716 -0.0632652 5.98953633 -2.54296875 8.51171875 C-3.13722656 9.13691406 -3.73148438 9.76210938 -4.34375 10.40625 C-6.23046875 11.69921875 -6.23046875 11.69921875 -8.4609375 11.3984375 C-9.04488281 11.16769531 -9.62882813 10.93695313 -10.23046875 10.69921875 C-9.64651669 7.18772034 -8.3976723 5.40890117 -5.91796875 2.88671875 C-5.32371094 2.26152344 -4.72945312 1.63632812 -4.1171875 0.9921875 C-2.23046875 -0.30078125 -2.23046875 -0.30078125 0 0 Z " fill="#0C0C0C" transform="translate(1000.23046875,498.30078125)"/>
</svg>
